<svg xmlns="http://www.w3.org/2000/svg" viewBox="0 0 64 64" fill="none" stroke="currentColor" stroke-width="1.4" stroke-linecap="round" stroke-linejoin="round"><path d="M8 26 Q22 22 32 26 Q42 30 56 26"/><path d="M8 40 Q22 36 32 40 Q42 44 56 40"/><path d="M14 12 Q18 24 14 36 Q12 46 18 56" stroke-width="0.9"/><path d="M50 12 Q46 22 50 34 Q52 46 46 56" stroke-width="0.9"/><circle cx="14" cy="18" r="2.4"/><circle cx="50" cy="20" r="2.4"/><circle cx="20" cy="50" r="2.4"/><circle cx="44" cy="52" r="2.4"/><path d="M14 18 L20 50" stroke-width="0.9"/><path d="M14 18 L50 20" stroke-width="0.9"/><path d="M50 20 L44 52" stroke-width="0.9"/><path d="M20 50 L44 52" stroke-width="0.9"/><path d="M14 18 L44 52" stroke-width="0.9"/><circle cx="14" cy="18" r="0.8" fill="currentColor" stroke="none"/><circle cx="50" cy="20" r="0.8" fill="currentColor" stroke="none"/><circle cx="20" cy="50" r="0.8" fill="currentColor" stroke="none"/><circle cx="44" cy="52" r="0.8" fill="currentColor" stroke="none"/></svg>
