<svg xmlns="http://www.w3.org/2000/svg" viewBox="0 0 64 64" fill="none" stroke="currentColor" stroke-width="1.4" stroke-linecap="round" stroke-linejoin="round"><path d="M8 16 Q20 14 32 18 Q44 14 56 16 L56 50 Q44 48 32 52 Q20 48 8 50 Z"/><path d="M32 18 V52" stroke-width="0.9"/><path d="M14 24 H26 M14 28 H24" stroke-width="0.9"/><path d="M44 38 Q40 32 44 28 Q48 24 50 30 Q48 34 44 34 Q40 34 42 38 Q44 42 48 40"/><path d="M40 44 Q42 42 44 44 Q46 42 48 44" stroke-width="0.9"/><circle cx="50" cy="30" r="0.8" fill="currentColor" stroke="none"/><path d="M16 56 L46 38" stroke-width="0.9"/><path d="M44 36 L48 38 L46 42 Z" stroke-width="0.9"/><path d="M14 56 L18 56" stroke-width="0.9"/></svg>
