<svg xmlns="http://www.w3.org/2000/svg" viewBox="0 0 64 64" fill="none" stroke="currentColor" stroke-width="1.4" stroke-linecap="round" stroke-linejoin="round"><path d="M8 32 C 14 20 26 16 38 18 C 48 19 54 24 56 32 C 54 40 48 45 38 46 C 26 48 14 44 8 32 Z"/><path d="M8 32 L 2 24 L 4 32 L 2 40 Z"/><path d="M22 22 Q 21 32 24 42" stroke-width="0.9"/><path d="M28 20 Q 27 32 30 44" stroke-width="0.9"/><path d="M34 19 Q 33 32 36 45" stroke-width="0.9"/><path d="M40 19 Q 39 32 42 45" stroke-width="0.9"/><path d="M46 22 Q 45 32 48 42" stroke-width="0.9"/><circle cx="50" cy="28" r="1" fill="currentColor" stroke="none"/></svg>
