<svg xmlns="http://www.w3.org/2000/svg" viewBox="0 0 64 64" fill="none" stroke="currentColor" stroke-width="1.4" stroke-linecap="round" stroke-linejoin="round"><path d="M6 10h52"/><path d="M18 10l6 18"/><path d="M46 10l-6 18"/><path d="M24 28h16"/><circle cx="24" cy="28" r="1"/><circle cx="40" cy="28" r="1"/><path d="M32 28l-6 14"/><path d="M26 42l3 6"/><circle cx="29" cy="38" r="2.4"/><path d="M29 40.4v4"/><path d="M27 42l4 0" stroke-width="0.9"/><path d="M28 44l-2 4"/><path d="M30 44l2 4"/><path d="M10 10c4 6 10 9 14 8" stroke-width="0.9"/><path d="M54 10c-4 6-10 9-14 8" stroke-width="0.9"/></svg>