<svg xmlns="http://www.w3.org/2000/svg" viewBox="0 0 64 64" fill="none" stroke="currentColor" stroke-width="1.4" stroke-linecap="round" stroke-linejoin="round"><path d="M8 10h48v34H8z"/><path d="M20 44l-3 10M44 44l3 10"/><path d="M14 54h36" stroke-width="0.9"/><path d="M18 16h14"/><path d="M25 16v10"/><circle cx="25" cy="28" r="2.2"/><path d="M20 36c2-3 4-4 5-4s3 1 5 4" stroke-width="0.9"/><path d="M38 18c4 2 6 6 6 10s-2 8-6 10" stroke-width="0.9"/><path d="M42 22c2 2 3 4 3 6s-1 4-3 6" stroke-width="0.9"/><circle cx="38" cy="28" r="0.9" fill="currentColor" stroke="none"/></svg>
