<svg xmlns="http://www.w3.org/2000/svg" viewBox="0 0 64 64" fill="none" stroke="currentColor" stroke-width="1.4" stroke-linecap="round" stroke-linejoin="round"><path d="M8 30 H40 V54 Q40 56 38 56 H10 Q8 56 8 54 Z"/><path d="M8 30 L12 22 H18 L16 30 M18 30 L22 22 H28 L26 30 M28 30 L32 22 H38 L36 30" stroke-width="0.9"/><path d="M44 14 Q47 11 50 14 Q53 11 56 14" stroke-width="0.9"/><path d="M46 22 Q49 19 52 22 Q55 19 58 22" stroke-width="0.9"/><path d="M50 30 Q52 28 54 30 Q56 28 58 30" stroke-width="0.9"/><circle cx="48" cy="9" r="0.9" fill="currentColor" stroke="none"/><circle cx="55" cy="18" r="0.9" fill="currentColor" stroke="none"/></svg>
