<svg xmlns="http://www.w3.org/2000/svg" viewBox="0 0 64 64" fill="none" stroke="currentColor" stroke-width="1.4" stroke-linecap="round" stroke-linejoin="round"><path d="M10 12 L18 12"/><path d="M10 20 L26 20" stroke-width="2"/><path d="M22 28 L30 28"/><path d="M22 36 L38 36" stroke-width="1.4"/><path d="M34 42 L42 42"/><path d="M34 48 L50 48" stroke-width="0.9"/><path d="M14 8 L14 11"/><path d="M14 13 L14 19"/><path d="M14 21 L14 28"/><path d="M26 24 L26 27"/><path d="M26 29 L26 35"/><path d="M26 37 L26 44"/><path d="M38 40 L38 43"/><path d="M38 45 L38 47"/><path d="M38 49 L38 54" stroke-width="0.9"/><circle cx="46" cy="52" r="0.6" fill="currentColor" stroke="none"/><circle cx="48" cy="54" r="0.6" fill="currentColor" stroke="none"/><circle cx="50" cy="56" r="0.6" fill="currentColor" stroke="none"/></svg>
