<svg xmlns="http://www.w3.org/2000/svg" viewBox="0 0 64 64" fill="none" stroke="currentColor" stroke-width="1.4" stroke-linecap="round" stroke-linejoin="round"><path d="M32 6 L49.1 18.4 L42.6 38.5 L21.4 38.5 L14.9 18.4 Z"/><path d="M32 6 L42.6 38.5 M32 6 L21.4 38.5 M49.1 18.4 L21.4 38.5 M14.9 18.4 L42.6 38.5 M49.1 18.4 L14.9 18.4" stroke-width="0.9"/><circle cx="32" cy="24.7" r="3.5" stroke-width="0.9"/><circle cx="32" cy="24.7" r="0.9" fill="currentColor" stroke="none"/><path d="M18 48 L24 54 L40 54 L46 48" stroke-width="0.9"/><path d="M22 48 L26 52 M28 48 L32 54 M34 48 L38 52 M40 48 L44 52" stroke-width="0.9"/><circle cx="20" cy="58" r="0.8" fill="currentColor" stroke="none"/><circle cx="44" cy="58" r="0.8" fill="currentColor" stroke="none"/></svg>
