<svg xmlns="http://www.w3.org/2000/svg" viewBox="0 0 64 64" fill="none" stroke="currentColor" stroke-width="1.4" stroke-linecap="round" stroke-linejoin="round"><path d="M14 22 Q10 22 10 18 Q10 12 16 12 Q18 8 24 8 Q30 6 34 10 Q40 8 44 12 Q52 12 52 18 Q56 18 56 22 Q56 26 50 26 L18 26 Q14 26 14 22 Z"/><path d="M32 26 L26 38 L32 38 L24 56"/><path d="M30 34 L22 42 L26 42 L20 50" stroke-width="0.9"/><path d="M30 38 L36 46 L32 46 L36 54" stroke-width="0.9"/><path d="M28 42 L34 50" stroke-width="0.9"/><path d="M27 46 L22 50" stroke-width="0.9"/><circle cx="22" cy="50" r="0.8" fill="currentColor" stroke="none"/><circle cx="36" cy="54" r="0.8" fill="currentColor" stroke="none"/><circle cx="24" cy="56" r="0.8" fill="currentColor" stroke="none"/></svg>